# xmcd
#
# Track frame offsets:
# 150
# 17927
# 29292
# 48342
# 69747
# 86650
# 101242
# 118310
# 134700
# 153122
# 166522
# 187722
# 204230
# 221835
# 239235
# 258295
# 278982
# 290540
# 308227
# 329109
# 343279
#
# Disc length: 4777 seconds
#
#
# Revision: 0
# Processed by: cddbd v1.5.1PL0 Copyright (c) Steve Scherf et al.
# Submitted via: FreeRIP 2.90 
#
DISCID=4a12a715
DTITLE=Michael Buble - It's time
DYEAR=1900
DGENRE=Blues
TTITLE0=feeling good
TTITLE1=a foggy day (in london town)
TTITLE2=you don't know me
TTITLE3=quando, quando, quando
TTITLE4=home
TTITLE5=can't buy me love
TTITLE6=the more I see you
TTITLE7=save the last dance for me
TTITLE8=try a little tenderness
TTITLE9=how sweet it is
TTITLE10=song for you
TTITLE11=I've got you under my skin
TTITLE12=you and I
TTITLE13=fever
TTITLE14=moondance
TTITLE15=kissing a fool
TTITLE16=for once in my life
TTITLE17=how can you med a bronken heart
TTITLE18=can't help falling in love
TTITLE19=dream a little dream
TTITLE20=mack the knife
EXTD=
EXTT0=
EXTT1=
EXTT2=
EXTT3=
EXTT4=
EXTT5=
EXTT6=
EXTT7=
EXTT8=
EXTT9=
EXTT10=
EXTT11=
EXTT12=
EXTT13=
EXTT14=
EXTT15=
EXTT16=
EXTT17=
EXTT18=
EXTT19=
EXTT20=
PLAYORDER=
